<svg width="180" height="160" viewBox="0 0 180 160" fill="none" xmlns="http://www.w3.org/2000/svg">
<g clip-path="url(#clip0_743_19745)">
<path d="M36.7905 149.047C36.7593 152.588 36.499 156.123 36.011 159.631C35.994 159.754 35.9754 159.877 35.9582 160L2.6701 159.815C2.57236 159.693 2.47616 159.569 2.38295 159.444C2.07217 159.029 1.78088 158.603 1.5135 158.161C0.22829 156.036 -0.360091 153.549 0.229525 151.832L0.240091 151.805C0.367366 151.43 0.567921 151.082 0.830244 150.784C2.17455 149.277 4.89262 149.528 7.3592 150.745C5.14684 148.332 3.38522 145.288 3.25137 142.571C3.12012 139.921 4.5113 138.028 6.0202 136.419C6.06971 136.366 6.11921 136.314 6.16871 136.262C6.19275 136.236 6.21821 136.211 6.24217 136.184C7.41943 134.958 8.79193 133.749 10.7785 133.895C12.9573 134.056 15.3729 135.874 17.0666 137.992C18.7603 140.109 19.8858 142.514 21.0267 144.861C22.169 147.206 23.4048 149.612 25.2379 151.616C22.7552 148.488 20.7534 144.929 20.014 141.468C19.2746 138.006 19.9253 134.681 22.138 133.051C22.8098 132.572 23.5871 132.259 24.4049 132.14C24.5004 132.124 24.5973 132.111 24.6958 132.1C26.7441 131.868 29.1898 132.574 31.2706 134.26C33.5621 136.118 35.1509 138.871 35.9414 141.485C36.7318 144.099 36.816 146.615 36.7905 149.047Z" fill="#F2F2F2"/>
<path d="M15.0116 159.883L14.375 159.88C14.1729 159.754 13.9699 159.629 13.7658 159.507C13.6395 159.427 13.5118 159.351 13.3839 159.273C11.2726 157.988 9.14797 156.756 7.01018 155.576C4.87433 154.396 2.72775 153.269 0.570434 152.198C0.513251 152.173 0.466603 152.129 0.438588 152.073C0.410573 152.018 0.402963 151.954 0.417086 151.894C0.419398 151.886 0.422978 151.878 0.427693 151.872C0.457783 151.815 0.525039 151.792 0.623194 151.84C0.887804 151.972 1.15395 152.104 1.41854 152.239C3.58175 153.33 5.73568 154.474 7.88032 155.673C10.0235 156.872 12.1544 158.123 14.2732 159.428C14.3177 159.455 14.3623 159.483 14.4069 159.51C14.6089 159.635 14.8095 159.759 15.0116 159.883Z" fill="white"/>
<path d="M23.2189 159.929L22.8253 159.927C22.7366 159.803 22.6493 159.679 22.5605 159.555C20.4747 156.642 18.3894 153.728 16.3045 150.815C12.8902 146.045 9.4769 141.275 6.06465 136.505C6.04442 136.479 6.02938 136.45 6.02036 136.419C5.99118 136.313 6.06906 136.251 6.16888 136.262C6.21096 136.268 6.25128 136.283 6.28714 136.306C6.323 136.328 6.35358 136.358 6.37685 136.394C8.29108 139.069 10.2048 141.743 12.1181 144.416C15.5146 149.162 18.9107 153.907 22.3062 158.653C22.5222 158.954 22.7382 159.256 22.9541 159.558C23.0429 159.681 23.1317 159.805 23.2189 159.929Z" fill="white"/>
<path d="M31.9878 157.652C31.9677 158.313 31.9238 158.963 31.8665 159.607C31.8554 159.731 31.8443 159.854 31.8331 159.977L31.4202 159.975C31.4328 159.852 31.4454 159.728 31.4565 159.605C31.5438 158.674 31.6057 157.733 31.6141 156.766C31.6251 154.086 31.3629 151.412 30.8314 148.784C30.2666 145.955 29.4555 143.18 28.4075 140.491C27.3075 137.655 25.9812 134.911 24.4415 132.286C24.4125 132.243 24.3996 132.191 24.405 132.14C24.4221 132.023 24.5788 131.988 24.6959 132.1C24.7191 132.122 24.739 132.147 24.7551 132.175C24.9457 132.501 25.1327 132.828 25.3162 133.156C26.7992 135.796 28.0685 138.55 29.1121 141.39C30.1062 144.088 30.8623 146.867 31.3719 149.696C31.8493 152.32 32.0557 154.986 31.9878 157.652Z" fill="white"/>
<path d="M121.423 5.22946C121.423 4.19517 121.731 3.18411 122.308 2.32413C122.884 1.46415 123.704 0.793876 124.664 0.398071C125.623 0.00226544 126.679 -0.101295 127.697 0.100485C128.715 0.302265 129.651 0.800322 130.385 1.53168C131.119 2.26303 131.619 3.19483 131.822 4.20924C132.024 5.22366 131.92 6.27513 131.523 7.23069C131.126 8.18625 130.453 9.00298 129.589 9.5776C128.726 10.1522 127.711 10.4589 126.673 10.4589C125.281 10.4574 123.946 9.90589 122.962 8.92552C121.978 7.94514 121.424 6.61592 121.423 5.22946ZM131.37 5.22946C131.37 4.30405 131.094 3.39941 130.578 2.62995C130.062 1.8605 129.329 1.26078 128.47 0.906635C127.612 0.552494 126.667 0.459836 125.756 0.640375C124.845 0.820915 124.008 1.26655 123.351 1.92092C122.694 2.57529 122.247 3.409 122.066 4.31663C121.884 5.22427 121.978 6.16506 122.333 7.02003C122.689 7.87501 123.291 8.60577 124.063 9.1199C124.835 9.63403 125.744 9.90845 126.673 9.90845C127.918 9.90706 129.112 9.41365 129.993 8.53647C130.873 7.65929 131.368 6.46998 131.37 5.22946Z" fill="#CCCCCC"/>
<path d="M126.673 8.25682C128.351 8.25682 129.712 6.90133 129.712 5.22924C129.712 3.55715 128.351 2.20166 126.673 2.20166C124.994 2.20166 123.633 3.55715 123.633 5.22924C123.633 6.90133 124.994 8.25682 126.673 8.25682Z" fill="#FF8000"/>
<path d="M108.989 10.1838C111.736 10.1838 113.963 7.96576 113.963 5.22962C113.963 2.49347 111.736 0.275391 108.989 0.275391C106.242 0.275391 104.016 2.49347 104.016 5.22962C104.016 7.96576 106.242 10.1838 108.989 10.1838Z" fill="#CCCCCC"/>
<path d="M91.3055 10.1838C94.0523 10.1838 96.2791 7.96576 96.2791 5.22962C96.2791 2.49347 94.0523 0.275391 91.3055 0.275391C88.5587 0.275391 86.332 2.49347 86.332 5.22962C86.332 7.96576 88.5587 10.1838 91.3055 10.1838Z" fill="#CCCCCC"/>
<path d="M175.303 95.2311H48.478C47.2326 95.2297 46.0387 94.7362 45.1581 93.8591C44.2775 92.9819 43.7822 91.7926 43.7808 90.5521V24.2205C43.7822 22.98 44.2775 21.7907 45.1581 20.9135C46.0387 20.0363 47.2326 19.5429 48.478 19.5415H175.303C176.548 19.5429 177.742 20.0363 178.623 20.9135C179.503 21.7907 179.998 22.98 180 24.2205V90.5521C179.998 91.7926 179.503 92.9819 178.623 93.8591C177.742 94.7362 176.548 95.2297 175.303 95.2311ZM48.478 20.092C47.3791 20.0932 46.3257 20.5286 45.5487 21.3026C44.7717 22.0765 44.3346 23.1259 44.3334 24.2205V90.5521C44.3346 91.6466 44.7717 92.696 45.5487 93.47C46.3257 94.244 47.3791 94.6793 48.478 94.6806H175.303C176.401 94.6793 177.455 94.244 178.232 93.47C179.009 92.696 179.446 91.6466 179.447 90.5521V24.2205C179.446 23.1259 179.009 22.0765 178.232 21.3026C177.455 20.5286 176.401 20.0932 175.303 20.092H48.478Z" fill="#3F3D56"/>
<path d="M91.5821 77.616H58.978C57.7326 77.6146 56.5387 77.1211 55.6581 76.244C54.7775 75.3668 54.2822 74.1775 54.2808 72.937V40.4593C54.2822 39.2187 54.7775 38.0294 55.6581 37.1523C56.5387 36.2751 57.7326 35.7817 58.978 35.7803H91.5821C92.8275 35.7817 94.0214 36.2751 94.902 37.1523C95.7826 38.0294 96.2779 39.2187 96.2793 40.4593V72.937C96.2779 74.1775 95.7826 75.3668 94.902 76.244C94.0214 77.1211 92.8275 77.6146 91.5821 77.616ZM58.978 36.3307C57.8791 36.332 56.8257 36.7673 56.0487 37.5413C55.2717 38.3153 54.8346 39.3647 54.8334 40.4593V72.937C54.8346 74.0315 55.2717 75.0809 56.0487 75.8549C56.8257 76.6289 57.8791 77.0642 58.978 77.0655H91.5821C92.681 77.0642 93.7344 76.6289 94.5114 75.8549C95.2884 75.0809 95.7255 74.0315 95.7267 72.937V40.4593C95.7255 39.3647 95.2884 38.3153 94.5114 37.5413C93.7344 36.7673 92.681 36.332 91.5821 36.3307H58.978Z" fill="#CCCCCC"/>
<path d="M171.984 53.3955H109.262C108.676 53.3955 108.114 53.1635 107.699 52.7505C107.285 52.3376 107.052 51.7776 107.052 51.1936C107.052 50.6096 107.285 50.0496 107.699 49.6366C108.114 49.2237 108.676 48.9917 109.262 48.9917H171.984C172.57 48.9917 173.132 49.2237 173.547 49.6366C173.961 50.0496 174.194 50.6096 174.194 51.1936C174.194 51.7776 173.961 52.3376 173.547 52.7505C173.132 53.1635 172.57 53.3955 171.984 53.3955Z" fill="#CCCCCC"/>
<path d="M140.209 44.0375H109.262C108.676 44.0375 108.114 43.8056 107.699 43.3926C107.285 42.9797 107.052 42.4196 107.052 41.8357C107.052 41.2517 107.285 40.6916 107.699 40.2787C108.114 39.8658 108.676 39.6338 109.262 39.6338H140.209C140.795 39.6338 141.357 39.8658 141.772 40.2787C142.186 40.6916 142.419 41.2517 142.419 41.8357C142.419 42.4196 142.186 42.9797 141.772 43.3926C141.357 43.8056 140.795 44.0375 140.209 44.0375Z" fill="#CCCCCC"/>
<path d="M171.984 71.8364H109.262C108.676 71.8364 108.114 71.6044 107.699 71.1915C107.285 70.7785 107.052 70.2185 107.052 69.6345C107.052 69.0505 107.285 68.4905 107.699 68.0775C108.114 67.6646 108.676 67.4326 109.262 67.4326H171.984C172.57 67.4326 173.132 67.6646 173.547 68.0775C173.961 68.4905 174.194 69.0505 174.194 69.6345C174.194 70.2185 173.961 70.7785 173.547 71.1915C173.132 71.6044 172.57 71.8364 171.984 71.8364Z" fill="#CCCCCC"/>
<path d="M140.209 62.4785H109.262C108.676 62.4785 108.114 62.2465 107.699 61.8335C107.285 61.4206 107.052 60.8606 107.052 60.2766C107.052 59.6926 107.285 59.1326 107.699 58.7196C108.114 58.3067 108.676 58.0747 109.262 58.0747H140.209C140.795 58.0747 141.357 58.3067 141.772 58.7196C142.186 59.1326 142.419 59.6926 142.419 60.2766C142.419 60.8606 142.186 61.4206 141.772 61.8335C141.357 62.2465 140.795 62.4785 140.209 62.4785Z" fill="#CCCCCC"/>
<path d="M94.7772 76.254C94.7406 76.2541 94.7044 76.2469 94.6706 76.2328C94.6368 76.2187 94.6062 76.1981 94.5805 76.1721L56.0034 37.2267C55.9779 37.201 55.9578 37.1705 55.9441 37.1371C55.9305 37.1036 55.9236 37.0677 55.9238 37.0316C55.9241 36.9955 55.9315 36.9597 55.9456 36.9264C55.9597 36.8932 55.9803 36.863 56.0061 36.8376C56.0319 36.8122 56.0625 36.7921 56.0961 36.7785C56.1297 36.7649 56.1657 36.7581 56.202 36.7583C56.2382 36.7586 56.2741 36.7659 56.3076 36.78C56.341 36.794 56.3713 36.8145 56.3968 36.8402L94.974 75.7855C95.0122 75.8242 95.0382 75.8732 95.0485 75.9265C95.0589 75.9798 95.0532 76.035 95.0322 76.085C95.0112 76.1351 94.9757 76.1779 94.9304 76.2079C94.885 76.238 94.8317 76.254 94.7772 76.254Z" fill="#CCCCCC"/>
<path d="M55.7827 76.2539C55.7282 76.2539 55.6749 76.2378 55.6295 76.2078C55.5842 76.1777 55.5488 76.1349 55.5277 76.0849C55.5067 76.0348 55.501 75.9796 55.5114 75.9263C55.5218 75.8731 55.5477 75.824 55.586 75.7854L94.1619 36.8401C94.1874 36.8143 94.2177 36.7937 94.2511 36.7796C94.2846 36.7655 94.3205 36.7581 94.3568 36.7578C94.3931 36.7575 94.4291 36.7644 94.4628 36.778C94.4964 36.7916 94.5271 36.8117 94.5529 36.8371C94.5788 36.8625 94.5993 36.8927 94.6135 36.9261C94.6276 36.9594 94.635 36.9952 94.6352 37.0313C94.6354 37.0675 94.6285 37.1034 94.6148 37.1369C94.6011 37.1704 94.5809 37.2009 94.5553 37.2266L55.9793 76.1719C55.9537 76.1979 55.9231 76.2186 55.8893 76.2327C55.8555 76.2467 55.8193 76.2539 55.7827 76.2539Z" fill="#CCCCCC"/>
<path d="M170.053 87.1119H152.369C151.233 87.1119 150.144 86.6624 149.341 85.8623C148.538 85.0623 148.086 83.9772 148.086 82.8457C148.086 81.7143 148.538 80.6292 149.341 79.8291C150.144 79.0291 151.233 78.5796 152.369 78.5796H170.053C171.189 78.5796 172.278 79.0291 173.081 79.8291C173.884 80.6292 174.336 81.7143 174.336 82.8457C174.336 83.9772 173.884 85.0623 173.081 85.8623C172.278 86.6624 171.189 87.1119 170.053 87.1119Z" fill="#FF8000"/>
<path d="M2.30902 159.973H85.4773C85.5505 159.973 85.6208 159.944 85.6726 159.893C85.7244 159.841 85.7536 159.771 85.7536 159.698C85.7536 159.625 85.7244 159.555 85.6726 159.503C85.6208 159.452 85.5505 159.423 85.4773 159.423H2.30902C2.23574 159.423 2.16546 159.452 2.11364 159.503C2.06182 159.555 2.03271 159.625 2.03271 159.698C2.03271 159.771 2.06182 159.841 2.11364 159.893C2.16546 159.944 2.23574 159.973 2.30902 159.973Z" fill="#3F3D56"/>
<path d="M54.2344 156.821L57.622 156.821L59.2334 143.806L54.2339 143.806L54.2344 156.821Z" fill="#A0616A"/>
<path d="M64.1548 159.954L53.5085 159.955L53.5083 155.857L60.0413 155.857C61.1322 155.857 62.1784 156.288 62.9499 157.057C63.7213 157.825 64.1547 158.867 64.1548 159.954Z" fill="#2F2E41"/>
<path d="M29.6558 152.999L32.7369 154.401L39.6318 143.229L35.0841 141.16L29.6558 152.999Z" fill="#A0616A"/>
<path d="M37.3726 159.955L27.6886 155.549L29.3975 151.822L35.34 154.525C36.3323 154.977 37.1039 155.802 37.4851 156.821C37.8663 157.839 37.8258 158.966 37.3726 159.955Z" fill="#2F2E41"/>
<path d="M39.5203 112.937C39.1957 112.694 38.9287 112.383 38.7379 112.025C38.5472 111.668 38.4374 111.274 38.4163 110.869C38.3952 110.465 38.4633 110.062 38.6158 109.687C38.7683 109.312 39.0015 108.974 39.2989 108.699L35.3169 99.6987L40.3757 100.553L43.3815 108.969C43.8131 109.497 44.0351 110.165 44.0054 110.845C43.9757 111.526 43.6964 112.172 43.2205 112.661C42.7445 113.15 42.105 113.449 41.423 113.499C40.741 113.55 40.064 113.35 39.5203 112.937Z" fill="#A0616A"/>
<path d="M53.2148 152.292L49.9648 124.019C49.9386 123.791 49.8319 123.58 49.6639 123.424C49.4958 123.268 49.2774 123.176 49.0478 123.166C48.8181 123.156 48.5923 123.227 48.4108 123.368C48.2292 123.508 48.1039 123.708 48.0572 123.933L46.4461 131.665C46.4233 131.774 46.3858 131.88 46.3344 131.979L36.9033 150.247C36.7644 150.515 36.5316 150.724 36.2488 150.834C35.966 150.944 35.6526 150.947 35.3678 150.842L32.0885 149.639C31.9338 149.582 31.792 149.495 31.6713 149.383C31.5506 149.271 31.4534 149.137 31.3855 148.987C31.3175 148.837 31.2801 148.676 31.2754 148.512C31.2707 148.348 31.2989 148.184 31.3582 148.031L39.0354 128.2C39.0761 128.095 39.0979 127.984 39.1 127.871L39.4922 107.164C39.4981 106.86 39.6156 106.569 39.8225 106.346C40.0294 106.124 40.3113 105.984 40.6146 105.954L60.9881 103.975C61.1683 103.957 61.3502 103.979 61.521 104.039C61.6918 104.099 61.8475 104.195 61.9771 104.321C62.1067 104.447 62.2071 104.599 62.2714 104.768C62.3356 104.937 62.3621 105.117 62.349 105.297L58.9264 152.241C58.9025 152.552 58.7617 152.844 58.5318 153.057C58.302 153.27 58.0001 153.388 57.6862 153.389H54.4501C54.1448 153.39 53.8502 153.278 53.6223 153.075C53.3945 152.873 53.2494 152.594 53.2148 152.292Z" fill="#2F2E41"/>
<path d="M52.8391 68.5914C56.5871 68.5914 59.6255 65.5648 59.6255 61.8313C59.6255 58.0979 56.5871 55.0713 52.8391 55.0713C49.0911 55.0713 46.0527 58.0979 46.0527 61.8313C46.0527 65.5648 49.0911 68.5914 52.8391 68.5914Z" fill="#A0616A"/>
<path d="M58.7204 72.2844C58.5346 72.196 58.3501 72.1109 58.1671 72.0293C55.9387 71.0307 53.4833 70.642 51.0539 70.9033C48.6245 71.1647 46.3091 72.0665 44.3461 73.516C40.7317 76.1976 38.9895 80.235 39.5664 84.5931C40.7823 93.7785 39.3902 106.239 39.2456 107.48C50.4017 112.59 60.1892 106.165 61.0579 105.568L58.7204 72.2844Z" fill="#68889E"/>
<path d="M38.9414 107.361C38.7381 107.329 38.5461 107.247 38.3826 107.123C38.2191 106.998 38.0892 106.835 38.0048 106.648L32.3102 94.0794C32.0968 93.6092 32.0026 93.094 32.0358 92.579C32.069 92.0641 32.2287 91.5651 32.5007 91.126L39.4939 79.8228C39.714 79.4157 40.0527 79.0846 40.4656 78.8732C40.8784 78.6618 41.3458 78.58 41.8063 78.6386C42.2667 78.6972 42.6985 78.8934 43.0447 79.2014C43.3909 79.5094 43.6353 79.9147 43.7455 80.3639C43.8706 80.8756 43.815 81.4146 43.5882 81.8903L38.4151 92.7115L41.815 104.174C41.8752 104.379 41.8814 104.596 41.8331 104.804C41.7848 105.012 41.6836 105.204 41.5392 105.362L40.0547 106.975C39.9386 107.102 39.7972 107.203 39.6396 107.272C39.4821 107.341 39.3118 107.377 39.1396 107.377C39.0732 107.377 39.0069 107.372 38.9414 107.361Z" fill="#68889E"/>
<path opacity="0.2" d="M54.7939 104.735L53.7412 83.762L54.0143 83.7266L58.747 105.911H56.0357C55.7167 105.912 55.4098 105.79 55.1786 105.571C54.9474 105.352 54.8097 105.052 54.7939 104.735Z" fill="black"/>
<path d="M58.5444 111.427C58.2776 111.122 58.0812 110.762 57.9691 110.373C57.857 109.985 57.8318 109.576 57.8954 109.176C57.959 108.777 58.1098 108.396 58.3371 108.06C58.5644 107.725 58.8628 107.444 59.2112 107.235L57.1919 97.6079L61.9624 99.4896L63.1487 108.344C63.4607 108.95 63.5386 109.649 63.3677 110.309C63.1969 110.968 62.789 111.542 62.2215 111.923C61.6539 112.303 60.9661 112.462 60.2884 112.371C59.6107 112.279 58.9902 111.944 58.5444 111.427Z" fill="#A0616A"/>
<path d="M57.5912 104.884L53.6044 78.4084L53.6006 78.3834L54.3712 74.8521C54.5643 73.9674 55.0744 73.1832 55.806 72.646C56.5376 72.1089 57.4407 71.8557 58.3461 71.9338C59.2516 72.0119 60.0975 72.416 60.7255 73.0704C61.3535 73.7249 61.7206 74.5848 61.7582 75.4894L62.9545 104.329C62.9665 104.642 62.8594 104.948 62.6544 105.186C62.4495 105.424 62.162 105.576 61.8495 105.611L58.9581 105.931C58.9115 105.936 58.8647 105.939 58.8178 105.939C58.5202 105.939 58.2325 105.833 58.0073 105.639C57.7821 105.445 57.6344 105.177 57.5912 104.884Z" fill="#68889E"/>
<path d="M50.0497 67.9708C49.1266 67.963 48.2247 67.6949 47.4482 67.1976C46.6717 66.7003 46.0524 65.9942 45.6621 65.1609C45.033 63.8354 44.6835 62.7795 44.6231 62.0222C44.4609 59.9875 45.615 56.7902 47.1434 55.0402C48.8202 53.1202 51.4741 52.8524 54.0407 52.5934C54.7419 52.5226 55.467 52.4495 56.1534 52.3432C56.7422 52.2521 57.4751 52.1386 58.0981 52.369C58.2782 52.4347 58.4428 52.5363 58.5821 52.6675C58.7214 52.7988 58.8324 52.9569 58.9082 53.1323C58.9327 53.194 58.9696 53.2499 59.0166 53.2968C59.0636 53.3437 59.1197 53.3805 59.1815 53.405C59.2349 53.4254 59.292 53.4345 59.3491 53.4318C59.4062 53.4291 59.4621 53.4146 59.5133 53.3893C59.6175 53.3365 59.7328 53.309 59.8496 53.309C59.9665 53.3089 60.0818 53.3364 60.186 53.3891C60.278 53.4353 60.3578 53.5024 60.4188 53.5851C60.4798 53.6678 60.5203 53.7637 60.537 53.865C60.5479 53.9345 60.5695 54.002 60.6011 54.0649C60.6549 54.1627 60.7288 54.2481 60.8181 54.3154C60.9074 54.3826 61.0099 54.4303 61.1191 54.4553C61.2856 54.4923 61.4328 54.5887 61.533 54.7263C61.6332 54.8639 61.6795 55.0332 61.6632 55.2024C61.6218 55.5496 61.6042 55.9243 61.5872 56.2868C61.5231 57.6506 61.4571 59.0605 60.0807 59.0378C59.7287 59.0232 59.3802 58.9619 59.0445 58.8556C58.5459 58.7177 58.1521 58.6081 57.6217 58.9377C56.8061 59.4441 56.6729 60.5027 56.5555 61.4367L56.5348 61.6C56.3976 62.6683 55.8308 63.9539 54.6849 64.0614C54.3211 64.0732 53.9588 64.0106 53.6202 63.8775C53.2719 63.724 52.8855 63.6778 52.5107 63.7449C51.8814 63.9237 51.5785 64.6724 51.6045 65.3197C51.6212 65.5847 51.6553 65.8483 51.7064 66.109C51.799 66.5217 51.8287 66.9461 51.7944 67.3677C51.7617 67.6241 51.4659 67.7932 50.8636 67.8995C50.5949 67.9469 50.3226 67.9708 50.0497 67.9708Z" fill="#2F2E41"/>
<path d="M107.688 33V27.456H111.072V28.12H108.464V29.768H110.784V30.416H108.464V32.336H111.272V33H107.688ZM112.21 28.96C112.381 28.9173 112.608 28.872 112.89 28.824C113.173 28.776 113.498 28.752 113.866 28.752C114.197 28.752 114.472 28.8 114.69 28.896C114.909 28.9867 115.082 29.1173 115.21 29.288C115.344 29.4533 115.437 29.6533 115.49 29.888C115.544 30.1227 115.57 30.3813 115.57 30.664V33H114.826V30.824C114.826 30.568 114.808 30.3493 114.77 30.168C114.738 29.9867 114.682 29.84 114.602 29.728C114.522 29.616 114.416 29.536 114.282 29.488C114.149 29.4347 113.984 29.408 113.786 29.408C113.706 29.408 113.624 29.4107 113.538 29.416C113.453 29.4213 113.37 29.4293 113.29 29.44C113.216 29.4453 113.146 29.4533 113.082 29.464C113.024 29.4747 112.981 29.4827 112.954 29.488V33H112.21V28.96ZM117.5 28.84H119.076V29.464H117.5V31.384C117.5 31.592 117.516 31.7653 117.548 31.904C117.58 32.0373 117.628 32.144 117.692 32.224C117.756 32.2987 117.836 32.352 117.932 32.384C118.028 32.416 118.14 32.432 118.268 32.432C118.492 32.432 118.671 32.408 118.804 32.36C118.943 32.3067 119.039 32.2693 119.092 32.248L119.236 32.864C119.161 32.9013 119.031 32.9467 118.844 33C118.657 33.0587 118.444 33.088 118.204 33.088C117.921 33.088 117.687 33.0533 117.5 32.984C117.319 32.9093 117.172 32.8 117.06 32.656C116.948 32.512 116.868 32.336 116.82 32.128C116.777 31.9147 116.756 31.6693 116.756 31.392V27.68L117.5 27.552V28.84ZM119.713 30.928C119.713 30.56 119.766 30.24 119.873 29.968C119.979 29.6907 120.121 29.4613 120.297 29.28C120.473 29.0987 120.675 28.9627 120.905 28.872C121.134 28.7813 121.369 28.736 121.609 28.736C122.169 28.736 122.598 28.912 122.897 29.264C123.195 29.6107 123.345 30.1413 123.345 30.856C123.345 30.888 123.345 30.9307 123.345 30.984C123.345 31.032 123.342 31.0773 123.337 31.12H120.489C120.521 31.552 120.646 31.88 120.865 32.104C121.083 32.328 121.425 32.44 121.889 32.44C122.15 32.44 122.369 32.4187 122.545 32.376C122.726 32.328 122.862 32.2827 122.953 32.24L123.057 32.864C122.966 32.912 122.806 32.9627 122.577 33.016C122.353 33.0693 122.097 33.096 121.809 33.096C121.446 33.096 121.131 33.0427 120.865 32.936C120.603 32.824 120.387 32.672 120.217 32.48C120.046 32.288 119.918 32.0613 119.833 31.8C119.753 31.5333 119.713 31.2427 119.713 30.928ZM122.569 30.52C122.574 30.184 122.489 29.9093 122.313 29.696C122.142 29.4773 121.905 29.368 121.601 29.368C121.43 29.368 121.278 29.4027 121.145 29.472C121.017 29.536 120.907 29.6213 120.817 29.728C120.726 29.8347 120.654 29.9573 120.601 30.096C120.553 30.2347 120.521 30.376 120.505 30.52H122.569ZM125.949 28.752C126.013 28.752 126.085 28.7573 126.165 28.768C126.251 28.7733 126.333 28.784 126.413 28.8C126.493 28.8107 126.565 28.824 126.629 28.84C126.699 28.8507 126.749 28.8613 126.781 28.872L126.653 29.52C126.595 29.4987 126.496 29.4747 126.357 29.448C126.224 29.416 126.051 29.4 125.837 29.4C125.699 29.4 125.56 29.416 125.421 29.448C125.288 29.4747 125.2 29.4933 125.157 29.504V33H124.413V29.016C124.589 28.952 124.808 28.8933 125.069 28.84C125.331 28.7813 125.624 28.752 125.949 28.752ZM133.951 30.224C133.951 30.704 133.876 31.1227 133.727 31.48C133.578 31.832 133.367 32.1253 133.095 32.36C132.823 32.5893 132.498 32.7627 132.119 32.88C131.74 32.992 131.324 33.048 130.871 33.048C130.647 33.048 130.399 33.0373 130.127 33.016C129.86 33 129.618 32.9653 129.399 32.912V27.536C129.618 27.4827 129.86 27.448 130.127 27.432C130.399 27.4107 130.647 27.4 130.871 27.4C131.324 27.4 131.74 27.4587 132.119 27.576C132.498 27.688 132.823 27.8613 133.095 28.096C133.367 28.3253 133.578 28.6187 133.727 28.976C133.876 29.328 133.951 29.744 133.951 30.224ZM130.935 32.368C131.671 32.368 132.22 32.1813 132.583 31.808C132.946 31.4293 133.127 30.9013 133.127 30.224C133.127 29.5467 132.946 29.0213 132.583 28.648C132.22 28.2693 131.671 28.08 130.935 28.08C130.716 28.08 130.546 28.0827 130.423 28.088C130.306 28.0933 130.223 28.0987 130.175 28.104V32.344C130.223 32.3493 130.306 32.3547 130.423 32.36C130.546 32.3653 130.716 32.368 130.935 32.368ZM134.822 30.928C134.822 30.56 134.875 30.24 134.982 29.968C135.089 29.6907 135.23 29.4613 135.406 29.28C135.582 29.0987 135.785 28.9627 136.014 28.872C136.243 28.7813 136.478 28.736 136.718 28.736C137.278 28.736 137.707 28.912 138.006 29.264C138.305 29.6107 138.454 30.1413 138.454 30.856C138.454 30.888 138.454 30.9307 138.454 30.984C138.454 31.032 138.451 31.0773 138.446 31.12H135.598C135.63 31.552 135.755 31.88 135.974 32.104C136.193 32.328 136.534 32.44 136.998 32.44C137.259 32.44 137.478 32.4187 137.654 32.376C137.835 32.328 137.971 32.2827 138.062 32.24L138.166 32.864C138.075 32.912 137.915 32.9627 137.686 33.016C137.462 33.0693 137.206 33.096 136.918 33.096C136.555 33.096 136.241 33.0427 135.974 32.936C135.713 32.824 135.497 32.672 135.326 32.48C135.155 32.288 135.027 32.0613 134.942 31.8C134.862 31.5333 134.822 31.2427 134.822 30.928ZM137.678 30.52C137.683 30.184 137.598 29.9093 137.422 29.696C137.251 29.4773 137.014 29.368 136.71 29.368C136.539 29.368 136.387 29.4027 136.254 29.472C136.126 29.536 136.017 29.6213 135.926 29.728C135.835 29.8347 135.763 29.9573 135.71 30.096C135.662 30.2347 135.63 30.376 135.614 30.52H137.678ZM140.219 28.84H141.795V29.464H140.219V31.384C140.219 31.592 140.235 31.7653 140.267 31.904C140.299 32.0373 140.347 32.144 140.411 32.224C140.475 32.2987 140.555 32.352 140.651 32.384C140.747 32.416 140.859 32.432 140.987 32.432C141.211 32.432 141.389 32.408 141.523 32.36C141.661 32.3067 141.757 32.2693 141.811 32.248L141.955 32.864C141.88 32.9013 141.749 32.9467 141.563 33C141.376 33.0587 141.163 33.088 140.923 33.088C140.64 33.088 140.405 33.0533 140.219 32.984C140.037 32.9093 139.891 32.8 139.779 32.656C139.667 32.512 139.587 32.336 139.539 32.128C139.496 31.9147 139.475 31.6693 139.475 31.392V27.68L140.219 27.552V28.84ZM144.15 32.464C144.326 32.464 144.48 32.4613 144.614 32.456C144.752 32.4453 144.867 32.4293 144.958 32.408V31.168C144.904 31.1413 144.816 31.12 144.694 31.104C144.576 31.0827 144.432 31.072 144.262 31.072C144.15 31.072 144.03 31.08 143.902 31.096C143.779 31.112 143.664 31.1467 143.558 31.2C143.456 31.248 143.371 31.3173 143.302 31.408C143.232 31.4933 143.198 31.608 143.198 31.752C143.198 32.0187 143.283 32.2053 143.454 32.312C143.624 32.4133 143.856 32.464 144.15 32.464ZM144.086 28.736C144.384 28.736 144.635 28.776 144.838 28.856C145.046 28.9307 145.211 29.04 145.334 29.184C145.462 29.3227 145.552 29.4907 145.606 29.688C145.659 29.88 145.686 30.0933 145.686 30.328V32.928C145.622 32.9387 145.531 32.9547 145.414 32.976C145.302 32.992 145.174 33.008 145.03 33.024C144.886 33.04 144.728 33.0533 144.558 33.064C144.392 33.08 144.227 33.088 144.062 33.088C143.827 33.088 143.611 33.064 143.414 33.016C143.216 32.968 143.046 32.8933 142.902 32.792C142.758 32.6853 142.646 32.5467 142.566 32.376C142.486 32.2053 142.446 32 142.446 31.76C142.446 31.5307 142.491 31.3333 142.582 31.168C142.678 31.0027 142.806 30.8693 142.966 30.768C143.126 30.6667 143.312 30.592 143.526 30.544C143.739 30.496 143.963 30.472 144.198 30.472C144.272 30.472 144.35 30.4773 144.43 30.488C144.51 30.4933 144.584 30.504 144.654 30.52C144.728 30.5307 144.792 30.5413 144.846 30.552C144.899 30.5627 144.936 30.5707 144.958 30.576V30.368C144.958 30.2453 144.944 30.1253 144.918 30.008C144.891 29.8853 144.843 29.7787 144.774 29.688C144.704 29.592 144.608 29.5173 144.486 29.464C144.368 29.4053 144.214 29.376 144.022 29.376C143.776 29.376 143.56 29.3947 143.374 29.432C143.192 29.464 143.056 29.4987 142.966 29.536L142.878 28.92C142.974 28.8773 143.134 28.8373 143.358 28.8C143.582 28.7573 143.824 28.736 144.086 28.736ZM147.665 33H146.921V28.84H147.665V33ZM147.289 28.088C147.156 28.088 147.041 28.0453 146.945 27.96C146.855 27.8693 146.809 27.7493 146.809 27.6C146.809 27.4507 146.855 27.3333 146.945 27.248C147.041 27.1573 147.156 27.112 147.289 27.112C147.423 27.112 147.535 27.1573 147.625 27.248C147.721 27.3333 147.769 27.4507 147.769 27.6C147.769 27.7493 147.721 27.8693 147.625 27.96C147.535 28.0453 147.423 28.088 147.289 28.088ZM150.193 33.08C149.734 33.0693 149.409 32.9707 149.217 32.784C149.025 32.5973 148.929 32.3067 148.929 31.912V26.92L149.673 26.792V31.792C149.673 31.9147 149.683 32.016 149.705 32.096C149.726 32.176 149.761 32.24 149.809 32.288C149.857 32.336 149.921 32.3733 150.001 32.4C150.081 32.4213 150.179 32.44 150.297 32.456L150.193 33.08ZM152.1 32.464C152.404 32.464 152.628 32.424 152.772 32.344C152.922 32.264 152.996 32.136 152.996 31.96C152.996 31.7787 152.924 31.6347 152.78 31.528C152.636 31.4213 152.399 31.3013 152.068 31.168C151.908 31.104 151.754 31.04 151.604 30.976C151.46 30.9067 151.335 30.8267 151.228 30.736C151.122 30.6453 151.036 30.536 150.972 30.408C150.908 30.28 150.876 30.1227 150.876 29.936C150.876 29.568 151.012 29.2773 151.284 29.064C151.556 28.8453 151.927 28.736 152.396 28.736C152.514 28.736 152.631 28.744 152.748 28.76C152.866 28.7707 152.975 28.7867 153.076 28.808C153.178 28.824 153.266 28.8427 153.34 28.864C153.42 28.8853 153.482 28.904 153.524 28.92L153.388 29.56C153.308 29.5173 153.183 29.4747 153.012 29.432C152.842 29.384 152.636 29.36 152.396 29.36C152.188 29.36 152.007 29.4027 151.852 29.488C151.698 29.568 151.62 29.696 151.62 29.872C151.62 29.9627 151.636 30.0427 151.668 30.112C151.706 30.1813 151.759 30.2453 151.828 30.304C151.903 30.3573 151.994 30.408 152.1 30.456C152.207 30.504 152.335 30.5547 152.484 30.608C152.682 30.6827 152.858 30.7573 153.012 30.832C153.167 30.9013 153.298 30.984 153.404 31.08C153.516 31.176 153.602 31.2933 153.66 31.432C153.719 31.5653 153.748 31.7307 153.748 31.928C153.748 32.312 153.604 32.6027 153.316 32.8C153.034 32.9973 152.628 33.096 152.1 33.096C151.732 33.096 151.444 33.064 151.236 33C151.028 32.9413 150.887 32.896 150.812 32.864L150.948 32.224C151.034 32.256 151.17 32.304 151.356 32.368C151.543 32.432 151.791 32.464 152.1 32.464Z" fill="#09314D"/>
</g>
<defs>
<clipPath id="clip0_743_19745">
<rect width="180" height="160" fill="white"/>
</clipPath>
</defs>
</svg>
